# xmcd CD database file
#
# Track frame offsets:
#	150
#	11598
#	24047
#	36121
#	46745
#	59519
#	76543
#	90617
#	101416
#	118140
#	134739
#	146363
#	158937
#	172811
#	183360
#	201984
#	215283
#	230932
#	244656
#	256530
#	267405
#	281152
#	289883
#	299619
#
# Disc length: 4147 seconds
#
# Revision: 0
# Processed by: cddbd v1.5.2PL0 Copyright (c) Steve Scherf et al.
# Submitted via: CDex 1.70beta2
#
DISCID=59103118
DTITLE=Ella Fitzgerald - Ella swings lightly (with the Marty Paich dek-tette)
DYEAR=2010
DGENRE=Jazz
TTITLE0=Little white liles
TTITLE1=You hit the spot
TTITLE2=What's your story, morning glory?
TTITLE3=Just you, just me
TTITLE4=As long as I live
TTITLE5=Teardrops from my eyes
TTITLE6=Gotta be this or that
TTITLE7=Moonlight on the Ganges
TTITLE8=My kinda love
TTITLE9=Blues in the night
TTITLE10=If I were a bell
TTITLE11=You're an old smoothie
TTITLE12=Little jazz
TTITLE13=You brought a new kind of love to me
TTITLE14=Knock me a kiss
TTITLE15=720 in the books
TTITLE16=Oh, what a night for love (long version)
TTITLE17=Little jazz (alt take)
TTITLE18=Dreams are made for children
TTITLE19=Oh, what a night for love (short version)
TTITLE20=Like young
TTITLE21=Cool breeze
TTITLE22=Desafinado
TTITLE23=Stardust bossa nova
EXTD=YEAR: 2010
EXTT0=
EXTT1=
EXTT2=
EXTT3=
EXTT4=
EXTT5=
EXTT6=
EXTT7=
EXTT8=
EXTT9=
EXTT10=
EXTT11=
EXTT12=
EXTT13=
EXTT14=
EXTT15=
EXTT16=
EXTT17=
EXTT18=
EXTT19=
EXTT20=
EXTT21=
EXTT22=
EXTT23=
PLAYORDER=
